<?xml version="1.0" encoding="UTF-8" standalone="no"?>
<!-- Created with Inkscape (http://www.inkscape.org/) -->

<svg
   xmlns:dc="http://purl.org/dc/elements/1.1/"
   xmlns:cc="http://creativecommons.org/ns#"
   xmlns:rdf="http://www.w3.org/1999/02/22-rdf-syntax-ns#"
   xmlns:svg="http://www.w3.org/2000/svg"
   xmlns="http://www.w3.org/2000/svg"
   xmlns:sodipodi="http://sodipodi.sourceforge.net/DTD/sodipodi-0.dtd"
   xmlns:inkscape="http://www.inkscape.org/namespaces/inkscape"
   width="380"
   height="75"
   viewBox="0 0 100.54166 19.84375"
   version="1.1"
   id="svg8"
   inkscape:version="0.92.4 (5da689c313, 2019-01-14)"
   sodipodi:docname="rapidquest-2.svg"
   inkscape:export-filename="/home/darren/quasar/rapidquest/src/assets/rapidquest-logo.png"
   inkscape:export-xdpi="96"
   inkscape:export-ydpi="96">
  <defs
     id="defs2" />
  <sodipodi:namedview
     id="base"
     pagecolor="#ffffff"
     bordercolor="#666666"
     borderopacity="1.0"
     inkscape:pageopacity="0.0"
     inkscape:pageshadow="2"
     inkscape:zoom="0.98994949"
     inkscape:cx="111.68544"
     inkscape:cy="295.26997"
     inkscape:document-units="mm"
     inkscape:current-layer="g167118"
     showgrid="false"
     inkscape:window-width="1920"
     inkscape:window-height="1016"
     inkscape:window-x="1920"
     inkscape:window-y="27"
     inkscape:window-maximized="1"
     units="px" />
  <metadata
     id="metadata5">
    <rdf:RDF>
      <cc:Work
         rdf:about="">
        <dc:format>image/svg+xml</dc:format>
        <dc:type
           rdf:resource="http://purl.org/dc/dcmitype/StillImage" />
        <dc:title></dc:title>
      </cc:Work>
    </rdf:RDF>
  </metadata>
  <g
     inkscape:label="Layer 1"
     inkscape:groupmode="layer"
     id="layer1"
     transform="translate(0,-277.15623)">
    <g
       id="g167118"
       transform="translate(-21.544643,189.74404)">
      <text
         id="text83608"
         y="104.42113"
         x="42.711311"
         style="font-style:normal;font-weight:normal;font-size:10.58333302px;line-height:1.25;font-family:sans-serif;letter-spacing:0px;word-spacing:0px;fill:#000000;fill-opacity:1;stroke:none;stroke-width:0.26458332"
         xml:space="preserve"><tspan
           style="font-style:normal;font-variant:normal;font-weight:normal;font-stretch:normal;font-size:16.93333244px;font-family:Anton;-inkscape-font-specification:'Anton, Normal';font-variant-ligatures:normal;font-variant-caps:normal;font-variant-numeric:normal;font-feature-settings:normal;text-align:start;writing-mode:lr-tb;text-anchor:start;stroke-width:0.26458332"
           y="104.42113"
           x="42.711311"
           id="tspan83606"
           sodipodi:role="line">RAPID<tspan
   id="tspan83610"
   style="fill:#ffffff;fill-opacity:1">QUEST</tspan></tspan></text>
      <path
         inkscape:connector-curvature="0"
         id="path83630"
         d="m 23.176847,106.36181 c 0,-0.0355 0.338208,-0.67453 0.75157,-1.4202 0.588559,-1.06168 1.105331,-1.68861 2.382588,-2.89053 1.478851,-1.39164 1.648651,-1.50653 1.820036,-1.23155 0.103948,0.16672 0.351316,0.54037 0.54968,0.83019 l 0.360664,0.52696 -1.541072,1.46094 c -1.207148,1.14438 -1.84252,1.60479 -2.932268,2.12479 -0.765159,0.3651 -1.391198,0.63484 -1.391198,0.5994 z m 17.621828,-0.61772 c -1.040033,-0.49782 -1.701941,-0.98027 -2.889659,-2.10612 l -1.540616,-1.46042 0.511883,-0.79019 c 0.281541,-0.43459 0.549322,-0.7902 0.595069,-0.7902 0.04571,0 0.796517,0.67247 1.668361,1.49437 1.231226,1.16066 1.753693,1.79835 2.339898,2.85577 0.415089,0.74878 0.734332,1.37966 0.709406,1.40198 -0.02496,0.0223 -0.65237,-0.25002 -1.394342,-0.60519 z m -8.956013,-2.33119 c -2.106746,-1.35109 -3.483474,-3.575676 -3.92953,-6.349556 -0.10503,-0.653078 -0.142659,-1.536799 -0.08363,-1.963769 l 0.107313,-0.776322 1.554261,-0.06511 c 1.221425,-0.05125 1.731903,-0.15043 2.38381,-0.463491 l 0.829544,-0.398277 0.838587,0.398654 c 0.656175,0.31193 1.17446,0.412737 2.382692,0.46345 l 1.544106,0.06484 0.102078,0.715037 c 0.0562,0.393273 0.02138,1.272488 -0.07745,1.953801 -0.402639,2.777937 -1.794016,5.052143 -3.92833,6.420903 -0.81235,0.52098 -0.911199,0.52098 -1.723551,0 z M 24.930046,93.126471 c -0.05808,-0.09026 0.179904,-0.444578 0.528876,-0.787528 l 0.634493,-0.623525 -0.884764,-0.980035 c -0.582156,-0.644873 -1.01171,-0.980062 -1.255927,-0.980062 -0.49336,0 -0.775877,-0.294591 -0.775877,-0.809077 0,-0.534785 0.285869,-0.809105 0.843151,-0.809105 0.540542,0 0.843148,0.271778 0.843148,0.757221 0,0.23071 0.29127,0.627655 0.777697,1.059898 1.17754,1.046378 1.19283,1.049163 1.934113,0.354572 0.36003,-0.337367 0.708244,-0.561903 0.773815,-0.498989 0.06556,0.06295 -0.05166,0.451922 -0.260525,0.864444 l -0.379739,0.750052 0.980295,0.961512 0.980298,0.961525 -1.132805,-0.06376 c -0.895781,-0.05058 -1.22006,-0.14256 -1.54983,-0.439748 l -0.417028,-0.375934 -0.766885,0.411298 c -0.469899,0.252044 -0.807791,0.347807 -0.872506,0.247323 z m 11.790025,-0.740622 0.9803,-0.961512 -0.379739,-0.750052 c -0.208854,-0.412522 -0.326095,-0.801517 -0.260526,-0.864444 0.06562,-0.06295 0.413789,0.161608 0.773814,0.498989 0.741279,0.694591 0.756572,0.691806 1.934115,-0.354572 0.486423,-0.432243 0.77769,-0.829188 0.77769,-1.059898 0,-0.485443 0.30261,-0.757221 0.843158,-0.757221 0.557276,0 0.843144,0.27432 0.843144,0.809105 0,0.514486 -0.282515,0.809077 -0.775877,0.809077 -0.244219,0 -0.673773,0.335189 -1.25592,0.980062 l -0.884766,0.980035 0.63449,0.623525 c 0.824636,0.810409 0.655609,1.076134 -0.34363,0.540219 l -0.766888,-0.411298 -0.417028,0.375947 c -0.329764,0.297282 -0.654046,0.389305 -1.549828,0.439749 l -1.132799,0.06376 z"
         style="fill:#000000;stroke-width:0.16518919" />
    </g>
  </g>
</svg>
